<svg width="24" height="24" viewBox="0 0 24 24" fill="none" xmlns="http://www.w3.org/2000/svg">
<path fill-rule="evenodd" clip-rule="evenodd" d="M17.6381 16.5219L18.1223 15.8401C18.9917 14.6159 19.5024 13.1218 19.5024 11.5024C19.5024 7.35896 16.1435 4 12 4C7.85652 4 4.49756 7.35896 4.49756 11.5024C4.49756 15.6459 7.85652 19.0049 12 19.0049C12.882 19.0049 13.7243 18.8535 14.5051 18.577L15.182 18.3373L18.1486 19.4171L17.6381 16.5219ZM19.7762 20.0095L19.7747 20.0089L19.7762 20.0095ZM15.1728 20.4623C14.1805 20.8137 13.1126 21.0049 12 21.0049C6.75195 21.0049 2.49756 16.7505 2.49756 11.5024C2.49756 6.25439 6.75195 2 12 2C17.2481 2 21.5024 6.25439 21.5024 11.5024C21.5024 13.5502 20.8547 15.4467 19.753 16.9981L20.419 20.7755C20.5527 21.5336 19.8156 22.1522 19.0922 21.8889L15.1728 20.4623Z" fill="#727272"/>
</svg>
