<svg width="20" height="18" viewBox="0 0 20 18" fill="none" xmlns="http://www.w3.org/2000/svg">
<path fill-rule="evenodd" clip-rule="evenodd" d="M14.5 1.79608e-06C13.6167 -0.000675323 12.7833 0.190102 12 0.572337C11.3992 0.865526 10.8669 1.241 10.4034 1.69876C10.1813 1.91803 9.81879 1.91793 9.59681 1.69858C9.1332 1.24046 8.60093 0.865045 8 0.572337C7.21667 0.190781 6.38333 1.79608e-06 5.5 1.79608e-06C3.93333 1.79608e-06 2.625 0.534657 1.575 1.60396C0.525001 2.67327 4.66853e-07 4.00566 4.66853e-07 5.60113C-0.000665732 7.55236 0.711668 9.33861 2.137 10.9599C3.56233 12.5812 5.15833 14.215 6.925 15.8614L8.65 17.4653C9.03333 17.8218 9.48333 18 10 18C10.5167 18 10.9667 17.8218 11.35 17.4653L13.05 15.8868C14.85 14.2405 16.4583 12.6025 17.875 10.9731C19.2917 9.34371 20 7.55304 20 5.60113C20 4.00566 19.475 2.67327 18.425 1.60396C17.375 0.534657 16.0667 1.79608e-06 14.5 1.79608e-06ZM8.27411 14.3578C6.55107 12.752 5.00295 11.1663 3.62706 9.60129C2.4895 8.30736 1.99953 6.99256 2 5.60184C2 4.51351 2.33663 3.70877 2.98921 3.04418C3.6418 2.37959 4.43131 2.03678 5.5 2.03678C6.09001 2.03678 6.62791 2.16176 7.13703 2.40975C7.54872 2.61028 7.90073 2.86059 8.20405 3.16033C9.20157 4.14604 10.7975 4.14667 11.7956 3.161C12.0993 2.86116 12.4518 2.61038 12.8642 2.40915C13.3726 2.16106 13.9095 2.03632 14.4985 2.03678H14.5C15.5687 2.03678 16.3582 2.37959 17.0108 3.04418C17.6634 3.70877 18 4.5128 18 5.60113C18 6.99736 17.5105 8.31994 16.3776 9.62293C15.0175 11.1872 13.4641 12.7704 11.7136 14.3715L11.708 14.3766L10.0025 15.9603L10.0015 15.9612C10.001 15.9617 10.0005 15.9621 10 15.9626C9.99953 15.9621 9.99904 15.9617 9.99854 15.9612L8.27519 14.3588C8.27483 14.3585 8.27447 14.3581 8.27411 14.3578Z" fill="#727272"/>
</svg>
