<svg width="81" height="22" viewBox="0 0 81 22" fill="none" xmlns="http://www.w3.org/2000/svg">
<path d="M0.821379 21.3385V0.382374H5.25204V17.6855H14.2361V21.3385H0.821379ZM35.6118 10.8604C35.6118 13.1457 35.1786 15.0898 34.3123 16.6929C33.4527 18.296 32.2794 19.5205 30.7923 20.3664C29.312 21.2054 27.6475 21.625 25.7988 21.625C23.9365 21.625 22.2652 21.202 20.7849 20.3562C19.3046 19.5103 18.1347 18.2858 17.2752 16.6827C16.4157 15.0796 15.9859 13.1389 15.9859 10.8604C15.9859 8.57517 16.4157 6.631 17.2752 5.02792C18.1347 3.42483 19.3046 2.20375 20.7849 1.36469C22.2652 0.518807 23.9365 0.0958642 25.7988 0.0958642C27.6475 0.0958642 29.312 0.518807 30.7923 1.36469C32.2794 2.20375 33.4527 3.42483 34.3123 5.02792C35.1786 6.631 35.6118 8.57517 35.6118 10.8604ZM31.1197 10.8604C31.1197 9.38012 30.898 8.13176 30.4546 7.11534C30.018 6.09891 29.4007 5.32807 28.6025 4.8028C27.8044 4.27753 26.8698 4.0149 25.7988 4.0149C24.7278 4.0149 23.7933 4.27753 22.9951 4.8028C22.197 5.32807 21.5762 6.09891 21.1328 7.11534C20.6962 8.13176 20.478 9.38012 20.478 10.8604C20.478 12.3407 20.6962 13.5891 21.1328 14.6055C21.5762 15.6219 22.197 16.3928 22.9951 16.918C23.7933 17.4433 24.7278 17.7059 25.7988 17.7059C26.8698 17.7059 27.8044 17.4433 28.6025 16.918C29.4007 16.3928 30.018 15.6219 30.4546 14.6055C30.898 13.5891 31.1197 12.3407 31.1197 10.8604ZM52.7895 7.15627C52.6463 6.65829 52.445 6.21829 52.1858 5.83628C51.9266 5.44745 51.6094 5.12001 51.2342 4.85396C50.8658 4.5811 50.4429 4.37304 49.9654 4.22978C49.4947 4.08653 48.9728 4.0149 48.3998 4.0149C47.3288 4.0149 46.3874 4.28094 45.5756 4.81303C44.7707 5.34512 44.1431 6.11938 43.6929 7.1358C43.2426 8.14541 43.0175 9.38012 43.0175 10.84C43.0175 12.2998 43.2392 13.5413 43.6826 14.5646C44.126 15.5878 44.7536 16.3689 45.5654 16.9078C46.3772 17.4399 47.3356 17.7059 48.4407 17.7059C49.4435 17.7059 50.2996 17.5286 51.0091 17.1739C51.7254 16.8123 52.2711 16.3041 52.6463 15.6492C53.0283 14.9943 53.2193 14.2201 53.2193 13.3264L54.1198 13.4595H48.717V10.1237H57.4862V12.7637C57.4862 14.6055 57.0974 16.1881 56.3197 17.5115C55.5421 18.8281 54.4711 19.8445 53.1067 20.5608C51.7424 21.2703 50.1803 21.625 48.4203 21.625C46.4556 21.625 44.7298 21.1918 43.2426 20.3255C41.7555 19.4523 40.5958 18.2142 39.7636 16.6111C38.9382 15.0012 38.5255 13.0911 38.5255 10.8809C38.5255 9.1823 38.7711 7.66789 39.2622 6.33767C39.7602 5.00063 40.456 3.86824 41.3496 2.94049C42.2433 2.01275 43.2836 1.30671 44.4705 0.822369C45.6575 0.338033 46.9434 0.0958642 48.3282 0.0958642C49.5151 0.0958642 50.6202 0.269816 51.6435 0.617721C52.6667 0.958803 53.574 1.44314 54.3653 2.07073C55.1635 2.69832 55.8149 3.44529 56.3197 4.31164C56.8245 5.17117 57.1486 6.11938 57.2918 7.15627H52.7895ZM80.0719 10.8604C80.0719 13.1457 79.6387 15.0898 78.7723 16.6929C77.9128 18.296 76.7395 19.5205 75.2524 20.3664C73.7721 21.2054 72.1076 21.625 70.2589 21.625C68.3966 21.625 66.7253 21.202 65.245 20.3562C63.7647 19.5103 62.5948 18.2858 61.7353 16.6827C60.8757 15.0796 60.446 13.1389 60.446 10.8604C60.446 8.57517 60.8757 6.631 61.7353 5.02792C62.5948 3.42483 63.7647 2.20375 65.245 1.36469C66.7253 0.518807 68.3966 0.0958642 70.2589 0.0958642C72.1076 0.0958642 73.7721 0.518807 75.2524 1.36469C76.7395 2.20375 77.9128 3.42483 78.7723 5.02792C79.6387 6.631 80.0719 8.57517 80.0719 10.8604ZM75.5798 10.8604C75.5798 9.38012 75.3581 8.13176 74.9147 7.11534C74.4781 6.09891 73.8607 5.32807 73.0626 4.8028C72.2645 4.27753 71.3299 4.0149 70.2589 4.0149C69.1879 4.0149 68.2534 4.27753 67.4552 4.8028C66.6571 5.32807 66.0363 6.09891 65.5929 7.11534C65.1563 8.13176 64.938 9.38012 64.938 10.8604C64.938 12.3407 65.1563 13.5891 65.5929 14.6055C66.0363 15.6219 66.6571 16.3928 67.4552 16.918C68.2534 17.4433 69.1879 17.7059 70.2589 17.7059C71.3299 17.7059 72.2645 17.4433 73.0626 16.918C73.8607 16.3928 74.4781 15.6219 74.9147 14.6055C75.3581 13.5891 75.5798 12.3407 75.5798 10.8604Z" fill="black"/>
</svg>
