<svg width="143" height="94" viewBox="0 0 143 94" fill="none" xmlns="http://www.w3.org/2000/svg">
<path d="M135.049 27.2018L138.65 30.5272L135.049 33.8526H111.64L108.039 30.5272L111.64 27.2018H135.049ZM140.451 31.3585L142.251 33.0212V56.2989C141.651 58.5159 140.15 59.9014 137.75 60.4557L135.049 53.8049V36.3466L140.451 31.3585ZM135.949 60.4557H108.939C106.538 59.9014 105.038 58.5159 104.438 56.2989L111.64 53.8049H133.248L135.949 60.4557ZM111.64 8.91218V24.7078L106.238 29.6958L104.438 28.0332V6.41814L111.64 8.91218ZM111.73 7.24949L104.528 4.75544C105.128 2.53852 106.628 1.15294 109.029 0.598709H137.75C140.15 1.15294 141.651 2.53852 142.251 4.75544L135.049 7.24949H111.73Z" fill="#313131"/>
<path d="M75.0562 28.0332L71.4549 31.3585L67.8536 28.0332V8.91218H75.0562V28.0332ZM88.5611 31.3585L90.3618 33.0212V56.2989C89.7616 58.5159 88.261 59.9014 85.8601 60.4557L83.1592 53.8049V36.3466L88.5611 31.3585ZM81.3585 7.24949H59.8407L52.6381 4.75544C53.2383 2.53852 54.7389 1.15294 57.1398 0.598709H84.0595L81.3585 7.24949ZM59.7507 8.91218V24.7078L54.3487 29.6958L52.5481 28.0332V6.41814L59.7507 8.91218ZM83.1592 24.7078V7.24949L85.8601 0.598709C88.261 1.15294 89.7616 2.53852 90.3618 4.75544V28.0332L88.5611 29.6958L83.1592 24.7078ZM59.7507 36.3466V53.8049L57.0497 60.4557C54.6489 59.9014 53.1483 58.5159 52.5481 56.2989V33.0212L54.3487 31.3585L59.7507 36.3466Z" fill="#313131"/>
<path d="M19.5653 31.3585L23.1666 34.6838V56.2989C22.5664 58.5158 21.0659 59.9014 18.665 60.4556L15.964 53.8048V34.6838L19.5653 31.3585ZM15.964 26.3704V8.9121H23.1666V26.3704L19.5653 29.6958L15.964 26.3704ZM7.95114 7.24941L0.748535 4.75537C1.34875 2.53845 2.8493 1.15287 5.25016 0.598633H33.9706C36.3714 1.15287 37.872 2.53845 38.4722 4.75537L31.2696 7.24941H7.95114Z" fill="#313131"/>
<path d="M5.39082 87.4659L6.08772 88.1628V92.6926C5.97157 93.1572 5.6812 93.4476 5.2166 93.5637L4.69393 92.17V88.1628L5.39082 87.4659ZM4.69393 86.4206V82.7619H6.08772V86.4206L5.39082 87.1175L4.69393 86.4206ZM3.14334 82.4134L1.74954 81.8907C1.86569 81.4261 2.15607 81.1358 2.62066 81.0196H8.17841C8.643 81.1358 8.93338 81.4261 9.04953 81.8907L7.65573 82.4134H3.14334ZM10.7891 86.0721V82.4134L11.3118 81.0196C11.7764 81.1358 12.0668 81.4261 12.1829 81.8907V86.769L11.8345 87.1175L10.7891 86.0721ZM11.8345 87.2917L12.1829 87.6401V92.5184C12.0668 92.983 11.7764 93.2734 11.3118 93.3895L10.7891 91.9957V88.337L11.8345 87.2917ZM18.2889 86.769L17.592 87.4659L16.8951 86.769V82.7619H18.2889V86.769ZM20.9023 87.4659L21.2507 87.8144V92.6926C21.1346 93.1572 20.8442 93.4476 20.3796 93.5637L19.8569 92.17V88.5113L20.9023 87.4659ZM19.5085 82.4134H15.3445L13.9507 81.8907C14.0669 81.4261 14.3573 81.1358 14.8218 81.0196H20.0311L19.5085 82.4134ZM15.3271 82.7619V86.0721L14.2818 87.1175L13.9333 86.769V82.2392L15.3271 82.7619ZM19.8569 86.0721V82.4134L20.3796 81.0196C20.8442 81.1358 21.1346 81.4261 21.2507 81.8907V86.769L20.9023 87.1175L19.8569 86.0721ZM15.3271 88.5113V92.17L14.8044 93.5637C14.3398 93.4476 14.0495 93.1572 13.9333 92.6926V87.8144L14.2818 87.4659L15.3271 88.5113ZM28.9152 86.5948L29.6121 87.2917L28.9152 87.9886H24.3854L23.6885 87.2917L24.3854 86.5948H28.9152ZM29.6121 93.5637H23.8627C23.3981 93.4476 23.1077 93.1572 22.9916 92.6926L24.3854 92.17H29.0894L29.6121 93.5637ZM22.9916 92.3442V87.8144L23.34 87.4659L24.3854 88.5113V91.8215L22.9916 92.3442ZM29.0894 82.4134H24.4028L23.009 81.8907C23.1252 81.4261 23.4155 81.1358 23.8801 81.0196H29.6121L29.0894 82.4134ZM24.3854 82.7619V86.0721L23.34 87.1175L22.9916 86.769V82.2392L24.3854 82.7619ZM40.9346 86.769L40.2377 87.4659L39.5408 86.769V82.7619H40.9346V86.769ZM43.548 87.4659L43.8964 87.8144V92.6926C43.7803 93.1572 43.4899 93.4476 43.0253 93.5637L42.5026 92.17V88.5113L43.548 87.4659ZM42.1542 82.4134H37.9902L36.5964 81.8907C36.7126 81.4261 37.0029 81.1358 37.4675 81.0196H42.6768L42.1542 82.4134ZM37.9728 82.7619V86.0721L36.9275 87.1175L36.579 86.769V82.2392L37.9728 82.7619ZM42.5026 86.0721V82.4134L43.0253 81.0196C43.4899 81.1358 43.7803 81.4261 43.8964 81.8907V86.769L43.548 87.1175L42.5026 86.0721ZM37.9728 88.5113V92.17L37.4501 93.5637C36.9855 93.4476 36.6952 93.1572 36.579 92.6926V87.8144L36.9275 87.4659L37.9728 88.5113ZM51.5609 86.5948L52.2578 87.2917L51.5609 87.9886H47.0311L46.3342 87.2917L47.0311 86.5948H51.5609ZM52.6062 87.4659L52.9547 87.8144V92.6926C52.8385 93.1572 52.5482 93.4476 52.0836 93.5637L51.5609 92.17V88.5113L52.6062 87.4659ZM51.2124 82.4134H47.0485L45.6547 81.8907C45.7709 81.4261 46.0612 81.1358 46.5258 81.0196H51.7351L51.2124 82.4134ZM47.0311 82.7619V86.0721L45.9857 87.1175L45.6373 86.769V82.2392L47.0311 82.7619ZM51.5609 86.0721V82.4134L52.0836 81.0196C52.5482 81.1358 52.8385 81.4261 52.9547 81.8907V86.769L52.6062 87.1175L51.5609 86.0721ZM47.0311 88.5113V92.17L46.5084 93.5637C46.0438 93.4476 45.7534 93.1572 45.6373 92.6926V87.8144L45.9857 87.4659L47.0311 88.5113ZM60.6192 86.5948L61.3161 87.2917L60.6192 87.9886H56.0894L55.3925 87.2917L56.0894 86.5948H60.6192ZM61.6645 87.4659L62.013 87.8144V92.6926C61.8968 93.1572 61.6064 93.4476 61.1418 93.5637L60.6192 92.17V88.5113L61.6645 87.4659ZM56.4378 85.201L60.6192 81.0196C61.3161 81.0196 61.7807 81.2519 62.013 81.7165L57.4831 86.2463H56.4378V85.201ZM56.0894 88.5113V92.17L55.5667 93.5637C55.1021 93.4476 54.8117 93.1572 54.6956 92.6926V87.8144L55.044 87.4659L56.0894 88.5113ZM55.044 87.1175L54.6956 86.769V81.8907C54.8117 81.4261 55.1021 81.1358 55.5667 81.0196L56.0894 82.4134V86.0721L55.044 87.1175ZM69.6775 86.5948L70.3744 87.2917L69.6775 87.9886H65.1476L64.4507 87.2917L65.1476 86.5948H69.6775ZM70.3744 93.5637H64.625C64.1604 93.4476 63.87 93.1572 63.7538 92.6926L65.1476 92.17H69.8517L70.3744 93.5637ZM63.7538 92.3442V87.8144L64.1023 87.4659L65.1476 88.5113V91.8215L63.7538 92.3442ZM69.8517 82.4134H65.1651L63.7713 81.8907C63.8874 81.4261 64.1778 81.1358 64.6424 81.0196H70.3744L69.8517 82.4134ZM65.1476 82.7619V86.0721L64.1023 87.1175L63.7538 86.769V82.2392L65.1476 82.7619ZM78.0433 86.5948L78.7402 87.2917L78.0433 87.9886H73.5134L72.8166 87.2917L73.5134 86.5948H78.0433ZM79.0886 87.4659L79.4371 87.8144V92.6926C79.3209 93.1572 79.0305 93.4476 78.5659 93.5637L78.0433 92.17V88.5113L79.0886 87.4659ZM78.2175 93.5637H72.9908C72.5262 93.4476 72.2358 93.1572 72.1197 92.6926L73.5134 92.17H77.6948L78.2175 93.5637ZM73.5134 82.7619V86.0721L72.4681 87.1175L72.1197 86.769V82.2392L73.5134 82.7619ZM73.5309 82.4134L72.1371 81.8907C72.2532 81.4261 72.5436 81.1358 73.0082 81.0196H78.5659C79.0305 81.1358 79.3209 81.4261 79.4371 81.8907L78.0433 82.4134H73.5309ZM92.3232 86.5948L93.0201 87.2917L92.3232 87.9886H87.7933L87.0964 87.2917L87.7933 86.5948H92.3232ZM93.3685 87.4659L93.7169 87.8144V92.6926C93.6008 93.1572 93.3104 93.4476 92.8458 93.5637L92.3232 92.17V88.5113L93.3685 87.4659ZM92.4974 93.5637H87.2707C86.8061 93.4476 86.5157 93.1572 86.3995 92.6926L87.7933 92.17H91.9747L92.4974 93.5637ZM87.7933 82.7619V86.0721L86.748 87.1175L86.3995 86.769V82.2392L87.7933 82.7619ZM87.8108 82.4134L86.417 81.8907C86.5331 81.4261 86.8235 81.1358 87.2881 81.0196H92.8458C93.3104 81.1358 93.6008 81.4261 93.7169 81.8907L92.3232 82.4134H87.8108ZM101.033 82.4134H97.2001L96.5032 81.7165L97.2001 81.0196H101.033L101.73 81.7165L101.033 82.4134ZM101.381 86.0721V82.4134L101.904 81.8907L102.775 82.7619V86.769L102.427 87.1175L101.381 86.0721ZM102.427 87.4659L102.775 87.8144V91.8215L101.904 92.6926L101.381 92.17V88.5113L102.427 87.4659ZM95.8063 87.1175L95.4578 86.769V82.7619L96.3289 81.8907L96.8516 82.4134V86.0721L95.8063 87.1175ZM101.73 92.8668L101.033 93.5637H97.2001L96.5032 92.8668L97.2001 92.17H101.033L101.73 92.8668ZM96.8516 88.5113V92.17L96.3289 92.6926L95.4578 91.8215V87.8144L95.8063 87.4659L96.8516 88.5113ZM111.137 93.5637H105.387C104.923 93.4476 104.632 93.1572 104.516 92.6926L105.91 92.17H110.614L111.137 93.5637ZM104.516 92.3442V87.8144L104.865 87.4659L105.91 88.5113V91.8215L104.516 92.3442ZM110.614 82.4134H105.927L104.534 81.8907C104.65 81.4261 104.94 81.1358 105.405 81.0196H111.137L110.614 82.4134ZM105.91 82.7619V86.0721L104.865 87.1175L104.516 86.769V82.2392L105.91 82.7619ZM112.882 86.0721V82.4134L113.405 81.0196C113.869 81.1358 114.16 81.4261 114.276 81.8907V86.769L113.927 87.1175L112.882 86.0721ZM113.927 87.2917L114.276 87.6401V92.5184C114.16 92.983 113.869 93.2734 113.405 93.3895L112.882 91.9957V88.337L113.927 87.2917ZM121.95 86.5948L122.647 87.2917L121.95 87.9886H117.42L116.723 87.2917L117.42 86.5948H121.95ZM122.647 93.5637H116.897C116.433 93.4476 116.142 93.1572 116.026 92.6926L117.42 92.17H122.124L122.647 93.5637ZM116.026 92.3442V87.8144L116.375 87.4659L117.42 88.5113V91.8215L116.026 92.3442ZM122.124 82.4134H117.437L116.044 81.8907C116.16 81.4261 116.45 81.1358 116.915 81.0196H122.647L122.124 82.4134ZM117.42 82.7619V86.0721L116.375 87.1175L116.026 86.769V82.2392L117.42 82.7619ZM128.033 87.4659L128.73 88.1628V92.6926C128.614 93.1572 128.324 93.4476 127.859 93.5637L127.336 92.17V88.1628L128.033 87.4659ZM127.336 86.4206V82.7619H128.73V86.4206L128.033 87.1175L127.336 86.4206ZM125.786 82.4134L124.392 81.8907C124.508 81.4261 124.798 81.1358 125.263 81.0196H130.821C131.285 81.1358 131.576 81.4261 131.692 81.8907L130.298 82.4134H125.786ZM139.355 86.5948L140.052 87.2917L139.355 87.9886H134.825L134.128 87.2917L134.825 86.5948H139.355ZM140.4 87.4659L140.749 87.8144V92.6926C140.633 93.1572 140.342 93.4476 139.878 93.5637L139.355 92.17V88.5113L140.4 87.4659ZM139.529 93.5637H134.303C133.838 93.4476 133.548 93.1572 133.431 92.6926L134.825 92.17H139.007L139.529 93.5637ZM134.825 82.2392V86.0721L133.78 87.1175L133.431 86.769V81.7165L134.825 82.2392ZM139.355 86.0721V82.4134L139.878 81.0196C140.342 81.1358 140.633 81.4261 140.749 81.8907V86.769L140.4 87.1175L139.355 86.0721Z" fill="#313131"/>
</svg>
