<svg width="55" height="24" viewBox="0 0 55 24" fill="none" xmlns="http://www.w3.org/2000/svg">
<path d="M52.1296 10.517L53.5253 11.8058L52.1296 13.0946H43.0572L41.6614 11.8058L43.0572 10.517H52.1296ZM54.2232 12.128L54.9211 12.7724V21.7941C54.6885 22.6533 54.1069 23.1903 53.1764 23.4052L52.1296 20.8275V14.0612L54.2232 12.128ZM52.4785 23.4052H42.0104C41.0798 23.1903 40.4983 22.6533 40.2657 21.7941L43.0572 20.8275H51.4317L52.4785 23.4052ZM43.0572 3.42847V9.55035L40.9635 11.4836L40.2657 10.8392V2.46185L43.0572 3.42847ZM43.0921 2.78406L40.3005 1.81744C40.5332 0.958233 41.1147 0.421225 42.0452 0.206421H53.1764C54.1069 0.421225 54.6885 0.958233 54.9211 1.81744L52.1296 2.78406H43.0921Z" fill="#313131"/>
<path d="M28.8783 10.8392L27.4826 12.128L26.0868 10.8392V3.42847H28.8783V10.8392ZM34.1124 12.128L34.8103 12.7724V21.7941C34.5776 22.6533 33.9961 23.1903 33.0656 23.4052L32.0188 20.8275V14.0612L34.1124 12.128ZM31.3209 2.78406H22.9813L20.1897 1.81744C20.4224 0.958233 21.0039 0.421225 21.9344 0.206421H32.3677L31.3209 2.78406ZM22.9464 3.42847V9.55035L20.8527 11.4836L20.1548 10.8392V2.46185L22.9464 3.42847ZM32.0188 9.55035V2.78406L33.0656 0.206421C33.9961 0.421225 34.5776 0.958233 34.8103 1.81744V10.8392L34.1124 11.4836L32.0188 9.55035ZM22.9464 14.0612V20.8275L21.8995 23.4052C20.969 23.1903 20.3875 22.6533 20.1548 21.7941V12.7724L20.8527 12.128L22.9464 14.0612Z" fill="#313131"/>
<path d="M7.37177 12.1281L8.76753 13.4169V21.7942C8.5349 22.6534 7.95333 23.1904 7.02283 23.4052L5.97602 20.8276V13.4169L7.37177 12.1281ZM5.97602 10.1948V3.42853H8.76753V10.1948L7.37177 11.4836L5.97602 10.1948ZM2.87046 2.78412L0.078949 1.81751C0.311575 0.958294 0.89314 0.421286 1.82364 0.206482H12.9548C13.8853 0.421286 14.4669 0.958294 14.6995 1.81751L11.908 2.78412H2.87046Z" fill="#313131"/>
</svg>
