<svg width="25" height="24" viewBox="0 0 25 24" fill="none" xmlns="http://www.w3.org/2000/svg">
<path fill-rule="evenodd" clip-rule="evenodd" d="M18.8454 7.46936C19.5273 7.46936 20.0801 6.91658 20.0801 6.23468C20.0801 5.55279 19.5273 5 18.8454 5C18.1635 5 17.6107 5.55279 17.6107 6.23468C17.6107 6.91658 18.1635 7.46936 18.8454 7.46936ZM18.8454 9.46936C20.6319 9.46936 22.0801 8.02114 22.0801 6.23468C22.0801 4.44822 20.6319 3 18.8454 3C17.0589 3 15.6107 4.44822 15.6107 6.23468C15.6107 6.37088 15.6191 6.50511 15.6355 6.63689L8.86393 10.0085C8.27187 9.2517 7.35012 8.76526 6.31476 8.76526C4.52829 8.76526 3.08008 10.2135 3.08008 11.9999C3.08008 13.7864 4.52829 15.2346 6.31476 15.2346C7.35008 15.2346 8.2718 14.7482 8.86386 13.9915L15.6355 17.3631C15.6191 17.4949 15.6107 17.6291 15.6107 17.7653C15.6107 19.5518 17.0589 21 18.8454 21C20.6319 21 22.0801 19.5518 22.0801 17.7653C22.0801 15.9789 20.6319 14.5306 18.8454 14.5306C17.9149 14.5306 17.0762 14.9235 16.4861 15.5524L9.54798 12.0979C9.54895 12.0654 9.54944 12.0327 9.54944 11.9999C9.54944 11.9672 9.54895 11.9346 9.54799 11.9021L16.4861 8.44756C17.0762 9.07648 17.9149 9.46936 18.8454 9.46936ZM18.8454 19C19.5273 19 20.0801 18.4472 20.0801 17.7653C20.0801 17.0834 19.5273 16.5306 18.8454 16.5306C18.1635 16.5306 17.6107 17.0834 17.6107 17.7653C17.6107 18.4472 18.1635 19 18.8454 19ZM7.54944 11.9999C7.54944 12.6818 6.99665 13.2346 6.31476 13.2346C5.63286 13.2346 5.08008 12.6818 5.08008 11.9999C5.08008 11.318 5.63286 10.7653 6.31476 10.7653C6.99665 10.7653 7.54944 11.318 7.54944 11.9999Z" fill="#333333"/>
</svg>
