<svg width="29" height="29" viewBox="0 0 29 29" fill="none" xmlns="http://www.w3.org/2000/svg">
<g clip-path="url(#clip0_196_817)">
<path d="M17.7182 25.3668L7.91728 15.595C7.80095 15.4787 7.71835 15.3527 7.66949 15.2169C7.62064 15.0812 7.59659 14.9358 7.59737 14.7807C7.59737 14.6256 7.62141 14.4802 7.66949 14.3445C7.71758 14.2087 7.80017 14.0827 7.91728 13.9664L17.7182 4.16549C17.9896 3.89405 18.3289 3.75833 18.7361 3.75833C19.1432 3.75833 19.4922 3.90375 19.783 4.19457C20.0739 4.4854 20.2193 4.8247 20.2193 5.21247C20.2193 5.60024 20.0739 5.93954 19.783 6.23037L11.2327 14.7807L19.783 23.331C20.0545 23.6025 20.1902 23.9371 20.1902 24.335C20.1902 24.7328 20.0448 25.0768 19.754 25.3668C19.4631 25.6576 19.1238 25.8031 18.7361 25.8031C18.3483 25.8031 18.009 25.6576 17.7182 25.3668Z" fill="#888888"/>
</g>
<defs>
<clipPath id="clip0_196_817">
<rect width="27.9194" height="27.9194" fill="white" transform="translate(0.123108 0.820984)"/>
</clipPath>
</defs>
</svg>
