<svg width="20" height="19" viewBox="0 0 20 19" fill="none" xmlns="http://www.w3.org/2000/svg">
<path fill-rule="evenodd" clip-rule="evenodd" d="M15.0427 5.5225C15.5128 5.05154 15.4635 4.23842 14.9321 3.70649C14.4007 3.17446 13.5885 3.12491 13.1181 3.59583L4.1984 12.5251C3.97166 12.7521 3.83237 13.052 3.80513 13.3719C3.73353 14.2125 4.43794 14.915 5.27772 14.8433C5.59787 14.816 5.89884 14.6762 6.12604 14.4487L13.6767 6.88993L13.253 6.50104C12.9261 6.201 12.904 5.69247 13.2038 5.36521C13.5035 5.03795 14.0115 5.01588 14.3384 5.31591L14.8135 5.75196L15.0427 5.5225ZM6.66595 16.464L3.63463 16.7227C2.65971 16.8059 1.84484 15.9902 1.92797 15.0142L2.18587 11.9861C2.18622 11.982 2.18473 11.9779 2.1818 11.975L11.835 2.31138C12.9326 1.21257 14.8277 1.32818 16.0678 2.5696C17.3079 3.81101 17.4234 5.70814 16.3257 6.80695L6.67911 16.464C6.67547 16.4676 6.66958 16.4676 6.66595 16.464ZM10.1274 15.1352C9.68609 15.1352 9.32834 15.493 9.32834 15.9343C9.32834 16.3756 9.68609 16.7334 10.1274 16.7334H16.6842C17.1255 16.7334 17.4833 16.3756 17.4833 15.9343C17.4833 15.493 17.1255 15.1352 16.6842 15.1352H10.1274Z" fill="#333333"/>
</svg>
